# xmcd CD database file
#
# Track frame offsets:
#	150
#	19070
#	38117
#	56345
#	66852
#	81107
#	93370
#	103750
#	117162
#	132672
#	146865
#	163767
#	181142
#	194172
#	209935
#	226415
#	250582
#	270915
#	285325
#
# Disc length: 3982 seconds
#
# Revision: 2
# Processed by: cddbd v1.5PL3 Copyright (c) Steve Scherf et al.
# Submitted via: CDex 1.50
#
DISCID=170f8c13
DTITLE=Country Radio - ... z pisnicek na prani
DYEAR=1996
DGENRE=Country
TTITLE0=Bajecna zenska
TTITLE1=Pampelisky
TTITLE2=Motgomery
TTITLE3=Buraky
TTITLE4=Cekej Tise
TTITLE5=Japonecka
TTITLE6=Kdyz nas tata hral
TTITLE7=Kdyz jde maly bobr spat
TTITLE8=Srdce v ruce mam
TTITLE9=Zatoka
TTITLE10=Dal jen vejdi
TTITLE11=Pani ma se ma
TTITLE12=Poplujem dal
TTITLE13=Blizzard
TTITLE14=Zvony
TTITLE15=Dalnicni hlidka
TTITLE16=Guadalcanal
TTITLE17=Bedna od whisky
TTITLE18=Vanocni vlak
EXTD=YEAR: 1996
EXTT0=
EXTT1=
EXTT2=
EXTT3=
EXTT4=
EXTT5=
EXTT6=
EXTT7=
EXTT8=
EXTT9=
EXTT10=
EXTT11=
EXTT12=
EXTT13=
EXTT14=
EXTT15=
EXTT16=
EXTT17=
EXTT18=
PLAYORDER=
